<svg width="644" height="209" viewBox="0 0 644 209" fill="none" xmlns="http://www.w3.org/2000/svg">
<path d="M553.22 100.916H592.053C598.257 100.916 602.765 99.2915 605.577 96.0423C608.472 92.6975 610.167 86.6292 610.664 77.8373C610.746 77.3594 610.829 77.0728 610.912 76.9772C610.994 76.7861 611.335 77 611.5 77C610.187 76.5309 613.844 77.8373 611.5 77L614.137 100.916L624.559 123.995C624.725 124.473 624.766 124.855 624.683 125.142C624.601 125.428 624.435 125.619 624.187 125.715C624.022 125.715 623.815 125.715 623.567 125.715C623.401 125.619 623.194 125.428 622.946 125.142C619.721 119.408 616.784 114.964 614.137 111.81C611.491 108.657 608.679 106.459 605.701 105.216C602.723 103.974 599.167 103.353 595.031 103.353H553.22V100.916ZM516 5.01713C516 4.73043 516.083 4.5393 516.248 4.44373C516.414 4.25261 516.703 4.15704 517.117 4.15704H618.356C620.093 4.15704 621.664 3.82257 623.07 3.15362C624.476 2.3891 625.634 1.67237 626.544 1.00342C627.537 0.334474 628.199 0 628.529 0C628.777 0 628.943 0.143342 629.026 0.430026C629.191 0.621164 629.398 1.3379 629.646 2.58024L640.068 49.3113C640.233 49.8847 640.068 50.6014 640.068 50.6014C640.068 50.6014 638.455 51.5 638.455 50.1714C638.289 50.1714 640.068 51.4615 639.075 50.8881C638.91 50.7925 638.703 50.5536 638.455 50.1714C634.154 41.2839 630.225 34.0209 626.668 28.3826C623.112 22.7443 619.762 18.3484 616.619 15.1947C613.559 11.9455 610.498 9.69978 607.438 8.45744C604.378 7.21511 601.11 6.59395 597.637 6.59395H558.803V196.385C558.803 198.392 559.3 199.921 560.292 200.972C561.367 201.928 562.898 202.406 564.883 202.406H598.877C603.674 202.406 608.1 201.068 612.152 198.392C616.288 195.62 620.672 190.317 625.304 182.48C629.935 174.644 635.436 162.985 641.805 147.504C642.053 147.122 642.26 146.835 642.425 146.644C642.673 146.357 642.921 146.261 643.169 146.357C643.417 146.357 643.583 146.548 643.666 146.93C636.627 179.215 638.62 169.427 638.455 170L631.259 206.276C631.011 207.423 630.804 208.139 630.639 208.426C630.473 208.808 630.308 209 630.142 209C629.563 209 628.736 208.665 627.661 207.996C626.668 207.327 625.304 206.61 623.567 205.846C621.83 205.177 619.638 204.842 616.991 204.842H517.117C516.703 204.842 516.414 204.747 516.248 204.556C516.083 204.365 516 204.173 516 203.982C516 203.505 516.414 203.17 517.241 202.979L528.779 201.115C530.268 200.829 531.384 200.399 532.129 199.825C532.873 199.252 533.245 198.392 533.245 197.245V11.7544C533.245 10.6076 532.873 9.74757 532.129 9.17419C531.384 8.50523 530.268 8.07519 528.779 7.88406L517.241 6.02055C516.414 5.82943 516 5.49495 516 5.01713Z" fill="black"/>
<path d="M474.358 73.2365C474.358 82.984 472.538 91.7282 468.899 99.4689C465.342 107.114 460.255 113.421 453.638 118.391C447.104 123.36 439.371 126.753 430.438 128.568C428.949 128.855 427.377 129.142 425.723 129.428C424.152 129.62 422.539 129.763 420.885 129.858C419.313 129.858 417.659 129.858 415.922 129.858C409.967 129.858 404.549 129.428 399.669 128.568C394.789 127.708 390.364 126.37 386.394 124.555C382.424 122.739 378.95 120.398 375.972 117.531L376.965 115.524C379.86 118.295 383.085 120.493 386.642 122.118C390.281 123.647 394.045 124.746 397.932 125.415C401.82 126.084 405.707 126.418 409.594 126.418C421.422 126.418 430.851 121.974 437.882 113.087C444.995 104.199 448.552 91.0592 448.552 73.6665C448.552 60.6697 446.277 49.1542 441.728 39.1199C437.179 28.9901 430.934 21.0105 422.994 15.1811C415.053 9.35162 405.914 6.43691 395.575 6.43691H381.803V195.798C381.803 197.423 382.134 198.617 382.796 199.382C383.458 200.146 384.574 200.672 386.146 200.958L397.684 202.822C398.18 202.917 398.511 203.061 398.677 203.252C398.842 203.348 398.925 203.539 398.925 203.825C398.925 204.399 398.594 204.685 397.932 204.685H340.117C339.703 204.685 339.414 204.59 339.248 204.399C339.083 204.208 339 204.016 339 203.825C339 203.347 339.414 203.013 340.241 202.822L351.779 200.958C353.35 200.672 354.467 200.146 355.129 199.382C355.79 198.617 356.121 197.423 356.121 195.798V11.5974C356.121 10.4506 355.749 9.59053 355.005 9.01715C354.343 8.34819 353.268 7.91814 351.779 7.72702L340.241 5.86351C339.414 5.67238 339 5.33791 339 4.86009C339 4.57339 339.083 4.38226 339.248 4.28669C339.414 4.09556 339.703 4 340.117 4H395.451C412.159 4 426.385 6.86694 438.13 12.6008C449.875 18.3347 458.849 26.4099 465.053 36.8264C471.256 47.1474 474.358 59.284 474.358 73.2365ZM413.068 127.852L437.013 124.555L473.489 192.931C475.557 196.658 477.749 199.095 480.065 200.242C482.464 201.388 485.028 202.249 487.757 202.822C488.253 203.013 488.584 203.156 488.75 203.252C488.998 203.348 489.122 203.539 489.122 203.825C489.122 204.016 488.998 204.208 488.75 204.399C488.584 204.59 488.336 204.685 488.005 204.685H438.378C437.634 204.685 437.262 204.399 437.262 203.825C437.262 203.539 437.344 203.348 437.51 203.252C437.758 203.156 438.089 203.061 438.502 202.965L444.954 201.818C446.856 201.245 447.931 200.242 448.18 198.808C448.51 197.279 447.973 195.129 446.567 192.358L413.068 127.852Z" fill="black"/>
<path d="M223.119 127.135H288.006L288.378 129.572L220.389 142.449L223.119 127.135ZM226.22 203.825C226.22 204.016 226.138 204.208 225.972 204.399C225.889 204.59 225.724 204.685 225.476 204.685H189.868C189.62 204.685 189.414 204.59 189.248 204.399C189.083 204.208 189 204.016 189 203.825C189 203.539 189.124 203.348 189.372 203.252C189.538 203.061 189.703 202.917 189.868 202.822L195.7 200.958C197.933 200.098 200.083 198.378 202.151 195.798C204.302 193.122 206.204 188.678 207.858 182.467L250.538 17.3313C251.365 14.4643 251.323 12.1708 250.413 10.4506C249.504 8.63488 247.725 7.29698 245.079 6.43691C244.334 5.95908 243.755 5.6246 243.342 5.43347C243.011 5.24234 242.845 5.05121 242.845 4.86009C242.845 4.57339 242.928 4.38226 243.093 4.28669C243.259 4.09556 243.548 4 243.962 4H283.167C283.498 4 283.705 4.09556 283.788 4.28669C283.953 4.38226 284.036 4.57339 284.036 4.86009C284.036 5.05121 283.87 5.29012 283.54 5.57682C283.291 5.76795 282.795 6.05464 282.051 6.43691C279.652 6.62803 278.205 7.15363 277.708 8.01371C277.295 8.77822 277.377 10.2595 277.956 12.4575L328.948 195.368C329.61 197.757 330.644 199.525 332.05 200.672C333.456 201.818 335.276 202.487 337.509 202.679C337.922 202.774 338.212 202.917 338.377 203.109C338.543 203.3 338.626 203.539 338.626 203.825C338.626 204.016 338.543 204.208 338.377 204.399C338.212 204.59 337.964 204.685 337.633 204.685H291.108C290.86 204.685 290.653 204.59 290.487 204.399C290.322 204.208 290.239 204.016 290.239 203.825C290.239 203.539 290.363 203.348 290.611 203.252C290.86 203.156 291.149 203.013 291.48 202.822L298.179 201.962C300.082 201.484 301.281 200.624 301.777 199.382C302.274 198.139 302.232 196.467 301.653 194.364L276.902 104.701L252.15 15.0377L254.632 10.0206L209.967 182.753C209.058 186.289 208.934 189.3 209.595 191.784C210.257 194.173 211.539 196.18 213.441 197.805C215.344 199.334 217.66 200.576 220.389 201.532L225.228 202.822C225.559 202.917 225.807 203.061 225.972 203.252C226.138 203.348 226.22 203.539 226.22 203.825Z" fill="black"/>
<path d="M31.0169 108.943H129.899V111.237H31.0169V108.943ZM42.8033 197.245C42.8033 198.392 43.1342 199.252 43.7959 199.825C44.5403 200.399 45.6569 200.829 47.1457 201.115L58.684 202.979C59.5111 203.17 59.9247 203.505 59.9247 203.982C59.9247 204.269 59.842 204.508 59.6765 204.699C59.5111 204.795 59.2216 204.842 58.8081 204.842H1.11661C0.70305 204.842 0.413559 204.795 0.248135 204.699C0.0827116 204.508 0 204.269 0 203.982C0 203.505 0.413559 203.17 1.24068 202.979L12.779 201.115C14.2678 200.829 15.343 200.399 16.0047 199.825C16.7491 199.252 17.1213 198.392 17.1213 197.245V11.7544C17.1213 10.6076 16.7491 9.74756 16.0047 9.17418C15.343 8.50522 14.2678 8.07518 12.779 7.88405L1.24068 6.02054C0.413559 5.92498 0 5.59051 0 5.01712C0 4.73042 0.0827116 4.53929 0.248135 4.44372C0.413559 4.2526 0.70305 4.15703 1.11661 4.15703H58.8081C59.2216 4.15703 59.5111 4.2526 59.6765 4.44372C59.842 4.53929 59.9247 4.73042 59.9247 5.01712C59.9247 5.59051 59.5111 5.92498 58.684 6.02054L47.1457 7.88405C45.6569 8.07518 44.5403 8.50522 43.7959 9.17418C43.1342 9.74756 42.8033 10.6076 42.8033 11.7544V197.245ZM145.159 197.245C145.159 198.392 145.49 199.252 146.152 199.825C146.896 200.399 148.013 200.829 149.502 201.115L161.04 202.979C161.867 203.17 162.28 203.505 162.28 203.982C162.28 204.269 162.198 204.508 162.032 204.699C161.867 204.795 161.619 204.842 161.288 204.842H103.472C103.059 204.842 102.769 204.795 102.604 204.699C102.439 204.508 102.356 204.269 102.356 203.982C102.356 203.505 102.769 203.17 103.596 202.979L115.135 201.115C116.624 200.829 117.699 200.399 118.361 199.825C119.105 199.252 119.477 198.392 119.477 197.245V11.7544C119.477 10.6076 119.105 9.74756 118.361 9.17418C117.699 8.50522 116.624 8.07518 115.135 7.88405L103.596 6.02054C102.769 5.92498 102.356 5.59051 102.356 5.01712C102.356 4.73042 102.439 4.53929 102.604 4.44372C102.769 4.2526 103.059 4.15703 103.472 4.15703H161.288C161.619 4.15703 161.867 4.2526 162.032 4.44372C162.198 4.53929 162.28 4.73042 162.28 5.01712C162.28 5.59051 161.867 5.92498 161.04 6.02054L149.502 7.88405C148.013 8.07518 146.896 8.50522 146.152 9.17418C145.49 9.74756 145.159 10.6076 145.159 11.7544V197.245Z" fill="black"/>
</svg>
